<svg xmlns="http://www.w3.org/2000/svg" width="1600" height="2000" viewBox="0 0 1600 2000">
  <defs>
    <linearGradient id="g" x1="0" x2="0" y1="0" y2="1">
      <stop offset="0" stop-color="#F8F8F6"/>
      <stop offset="1" stop-color="#EFEAE2"/>
    </linearGradient>
    <filter id="blur" x="-20%" y="-20%" width="140%" height="140%">
      <feGaussianBlur stdDeviation="22"/>
    </filter>
  </defs>
  <rect width="1600" height="2000" fill="url(#g)"/>
  <g filter="url(#blur)" opacity="0.9">
    <path d="M220 520 C 420 320, 620 320, 820 520 C 1020 720, 1020 980, 820 1180 C 620 1380, 420 1380, 220 1180 C 20 980, 20 720, 220 520 Z" fill="#1A1A1A"/>
    <path d="M1040 720 C 1220 580, 1400 620, 1460 820 C 1520 1020, 1400 1220, 1180 1200 C 960 1180, 860 860, 1040 720 Z" fill="#E9D7D3"/>
    <path d="M540 1240 C 760 1100, 980 1180, 980 1420 C 980 1660, 760 1740, 560 1620 C 360 1500, 340 1340, 540 1240 Z" fill="#D9D9D6"/>
  </g>
</svg>